<svg width="534" height="418" viewBox="0 0 534 418" fill="none" xmlns="http://www.w3.org/2000/svg">
<rect width="534" height="418" fill="#07AF77"/>
<path d="M257.334 162.672C266.627 162 275.859 164.628 283.405 170.093C290.951 175.559 296.328 183.51 298.588 192.549C299.135 194.543 300.44 196.245 302.225 197.289C304.01 198.333 306.133 198.637 308.139 198.137C310.146 197.636 311.877 196.37 312.962 194.61C314.047 192.85 314.4 190.735 313.946 188.718C310.796 176.065 303.28 164.93 292.723 157.276C282.167 149.622 269.247 145.94 256.242 146.878C243.052 147.994 230.676 153.721 221.29 163.056C211.904 172.39 206.107 184.733 204.918 197.917C203.96 210.764 207.496 223.545 214.922 234.073C222.348 244.601 233.201 252.221 245.626 255.629C247.628 256.113 249.74 255.796 251.513 254.748C253.287 253.699 254.581 252 255.122 250.013C255.663 248.025 255.408 245.904 254.411 244.102C253.414 242.299 251.753 240.956 249.782 240.358C240.907 237.912 233.158 232.459 227.86 224.931C222.561 217.403 220.043 208.268 220.736 199.088C221.587 189.686 225.721 180.884 232.413 174.225C239.105 167.566 247.928 163.476 257.334 162.672Z" fill="white"/>
<path d="M253.074 273.062C235.166 271.215 218.614 262.679 206.726 249.159C194.838 235.639 188.489 218.131 188.949 200.133C189.662 182.009 197.182 164.819 210.008 151.993C222.834 139.166 240.024 131.647 258.149 130.934C276.147 130.472 293.656 136.82 307.176 148.708C320.697 160.597 329.233 177.15 331.077 195.059C331.287 197.148 332.318 199.068 333.944 200.397C335.57 201.726 337.657 202.354 339.746 202.144C341.835 201.934 343.755 200.903 345.084 199.277C346.413 197.652 347.041 195.565 346.831 193.475C344.615 171.573 334.195 151.32 317.663 136.782C301.131 122.244 279.712 114.499 257.706 115.1C235.552 115.977 214.543 125.171 198.867 140.849C183.191 156.527 173.999 177.537 173.124 199.69C172.565 221.685 180.326 243.081 194.855 259.604C209.385 276.126 229.613 286.558 251.499 288.816C251.768 288.816 252.029 288.816 252.291 288.816C254.39 288.921 256.446 288.187 258.004 286.777C259.563 285.367 260.498 283.395 260.603 281.295C260.708 279.195 259.975 277.14 258.564 275.581C257.154 274.022 255.182 273.088 253.082 272.983L253.074 273.062Z" fill="white"/>
<path d="M358.786 281.311L329.146 251.655C328.94 251.451 328.781 251.204 328.682 250.932C328.582 250.659 328.544 250.368 328.569 250.08C328.595 249.791 328.684 249.511 328.83 249.261C328.977 249.01 329.176 248.795 329.415 248.631L348.035 235.743C349.154 234.968 350.031 233.893 350.566 232.642C351.101 231.391 351.272 230.015 351.059 228.671C350.847 227.327 350.259 226.071 349.364 225.046C348.469 224.021 347.303 223.27 346 222.878L262.939 197.956C261.972 197.665 260.944 197.641 259.964 197.886C258.984 198.132 258.09 198.639 257.375 199.353C256.66 200.067 256.153 200.961 255.906 201.94C255.659 202.92 255.682 203.948 255.972 204.915L280.886 287.977C281.276 289.28 282.027 290.447 283.051 291.343C284.076 292.239 285.332 292.827 286.676 293.041C288.02 293.254 289.397 293.084 290.649 292.549C291.9 292.015 292.975 291.138 293.75 290.019L306.647 271.399C306.811 271.161 307.026 270.962 307.276 270.816C307.526 270.67 307.806 270.58 308.094 270.554C308.382 270.527 308.673 270.565 308.945 270.663C309.218 270.761 309.466 270.918 309.671 271.122L339.319 300.778C340.674 302.133 342.512 302.894 344.429 302.894C346.346 302.894 348.184 302.133 349.539 300.778L358.786 291.531C359.459 290.861 359.993 290.065 360.357 289.188C360.721 288.311 360.909 287.371 360.909 286.421C360.909 285.471 360.721 284.531 360.357 283.654C359.993 282.777 359.459 281.981 358.786 281.311Z" fill="white"/>
</svg>
